<svg width="30" height="22" viewBox="0 0 30 22" fill="none" xmlns="http://www.w3.org/2000/svg">
<path d="M1.12056 11.7535C0.817868 11.4546 0.647828 11.0493 0.647828 10.6266C0.647828 10.204 0.817868 9.79867 1.12056 9.49977L10.2542 0.483176C10.4032 0.330944 10.5813 0.209518 10.7783 0.125984C10.9753 0.0424501 11.1872 -0.0015192 11.4016 -0.00335826C11.616 -0.00519732 11.8286 0.0351311 12.027 0.115273C12.2254 0.195415 12.4057 0.313765 12.5573 0.463419C12.7089 0.613073 12.8288 0.791033 12.9099 0.986915C12.9911 1.1828 13.032 1.39268 13.0301 1.60431C13.0283 1.81595 12.9837 2.0251 12.8991 2.21956C12.8145 2.41402 12.6915 2.5899 12.5373 2.73693L6.15967 9.03276L27.5416 9.03276C27.9698 9.03276 28.3805 9.20069 28.6833 9.4996C28.9861 9.79851 29.1562 10.2039 29.1562 10.6266C29.1562 11.0494 28.9861 11.4548 28.6833 11.7537C28.3805 12.0526 27.9698 12.2205 27.5416 12.2205L6.15967 12.2205L12.5373 18.5164C12.8314 18.817 12.9941 19.2196 12.9904 19.6375C12.9868 20.0554 12.817 20.4552 12.5176 20.7507C12.2182 21.0462 11.8133 21.2138 11.3899 21.2175C10.9666 21.2211 10.5588 21.0605 10.2542 20.7701L1.12056 11.7535Z" fill="white"/>
</svg>
