<svg enable-background="new 0 0 64 64" viewBox="0 0 64 64" xmlns="http://www.w3.org/2000/svg"><circle cx="32" cy="32" fill="#4f5d73" r="32"/><path d="m32.1 39.7c-1.6 1.5-6.1 12.5-6.1 12.5-.7 1.2.3 2.1 2.6.9l8.1-4.4c4.4-2.4 5.2-3.1 5.2-8l-.8-5.9c-.3-2-1.8-2.4-3.3-.8z" fill="#231f20" opacity=".2"/><path d="m27.1 34.7c-1.6 1.6-12.5 6.1-12.5 6.1-1.2.7-2.1-.3-.9-2.6l4.3-8.2c2.4-4.4 3.1-5.2 8-5.2l5.9.8c2 .3 2.4 1.8.8 3.3z" fill="#231f20" opacity=".2"/><path d="m32.1 37.7c-1.6 1.5-6.1 12.5-6.1 12.5-.7 1.2.3 2.1 2.6.9l8.1-4.4c4.4-2.4 5.2-3.1 5.2-8l-.8-5.9c-.3-2-1.8-2.4-3.3-.8z" fill="#c75c5c"/><path d="m27.1 32.7c-1.6 1.6-12.5 6.1-12.5 6.1-1.2.7-2.1-.3-.9-2.6l4.3-8.2c2.4-4.4 3.1-5.2 8-5.2l5.9.8c2 .3 2.4 1.8.8 3.3z" fill="#c75c5c"/><path d="m21.2 39.5c5.1-5.1 9.3-3.5 9.3-3.5s1.5 4.3-3.5 9.3-13.3 8.8-13.9 8.1c-.6-.5 3.1-8.8 8.1-13.9z" fill="#231f20" opacity=".2"/><path d="m21.2 37.5c5.1-5.1 9.3-3.5 9.3-3.5s1.5 4.3-3.5 9.3-13.3 8.8-13.9 8.1c-.6-.5 3.1-8.8 8.1-13.9z" fill="#e0995e"/><path d="m25.5 33.3c5.1-5.1 9.3-3.5 9.3-3.5s1.5 4.3-3.5 9.3-13.3 8.8-13.9 8.1c-.7-.6 3-8.8 8.1-13.9z" fill="#f5cf87"/><path d="m43.6 37.1c-7.8 7.8-19.8 5.7-19.8 5.7s-2.1-12 5.7-19.8 19.6-8.6 21.2-7.1c1.5 1.5.7 13.4-7.1 21.2z" fill="#231f20" opacity=".2"/><path d="m43.6 35.1c-7.8 7.8-19.8 5.7-19.8 5.7s-2.1-12 5.7-19.8 19.6-8.6 21.2-7.1c1.5 1.5.7 13.4-7.1 21.2z" fill="#e0e0d1"/><path d="m21 47c-.8.8-1.3 1.5-2.1.7-.8-.8-.1-1.3.7-2.1l9.9-12.7c.8-.8 4.2-1.5 4.9-.7.8.8.1 4.2-.7 4.9z" fill="#231f20" opacity=".2"/><path d="m21 45c-.8.8-1.3 1.5-2.1.7-.8-.8-.1-1.3.7-2.1l9.9-12.7c.8-.8 4.2-1.5 4.9-.7.8.8.1 4.2-.7 4.9z" fill="#c75c5c"/><circle cx="39.6" cy="27.1" fill="#231f20" opacity=".2" r="4"/><circle cx="45.3" cy="21.5" fill="#231f20" opacity=".2" r="2"/><g fill="#4f5d73"><circle cx="39.6" cy="25.1" r="4"/><circle cx="45.3" cy="19.5" r="2"/></g></svg>